<?xml version="1.0" encoding="iso-8859-1"?>
<!-- Generator: Adobe Illustrator 19.0.0, SVG Export Plug-In . SVG Version: 6.00 Build 0)  -->
<svg version="1.1" id="Capa_1" xmlns="http://www.w3.org/2000/svg" xmlns:xlink="http://www.w3.org/1999/xlink" x="0px" y="0px"
	 viewBox="0 0 512 512" style="enable-background:new 0 0 512 512;" xml:space="preserve">
<path style="fill:#303C42;" d="M437.333,128H320V42.667C320,19.135,300.854,0,277.333,0H106.667C83.146,0,64,19.135,64,42.667
	v426.667C64,492.865,83.146,512,106.667,512h170.667C300.854,512,320,492.865,320,469.333v-256h117.333
	c5.896,0,10.667-4.771,10.667-10.667v-64C448,132.771,443.229,128,437.333,128z"/>
<path style="fill:#90A4AE;" d="M298.667,469.333c0,11.76-9.563,21.333-21.333,21.333H106.667c-11.771,0-21.333-9.573-21.333-21.333
	V42.667c0-11.76,9.563-21.333,21.333-21.333h170.667c11.771,0,21.333,9.573,21.333,21.333V128h-59.229
	c-12.146-13.625-29.167-21.333-47.438-21.333c-35.292,0-64,28.708-64,64s28.708,64,64,64c18.271,0,35.292-7.708,47.438-21.333
	h59.229V469.333z"/>
<path style="fill:#FFCA28;" d="M426.667,192h-192.25c-3.354,0-6.5,1.573-8.521,4.24c-8.188,10.865-20.542,17.094-33.896,17.094
	c-23.521,0-42.667-19.135-42.667-42.667S168.479,128,192,128c13.354,0,25.708,6.229,33.896,17.094
	c2.021,2.667,5.167,4.24,8.521,4.24h192.25V192z"/>
<path style="fill:#303C42;" d="M234.667,341.333c0-23.531-19.146-42.667-42.667-42.667s-42.667,19.135-42.667,42.667
	c0,13.792,6.542,26.365,17.458,34.313l-6.729,60.51c-0.333,3.01,0.625,6.031,2.646,8.292c2.042,2.26,4.917,3.552,7.958,3.552h42.667
	c3.042,0,5.917-1.292,7.958-3.552c2.021-2.26,2.979-5.281,2.646-8.292l-6.688-60.219
	C226.646,369.917,234.667,360.344,234.667,341.333z"/>
<path style="fill:#5C6671;" d="M201.208,360.458c-4.063,1.979-6.458,6.292-5.958,10.781l6.167,55.427h-18.833l6.167-55.427
	c0.5-4.49-1.896-8.802-5.958-10.781c-7.479-3.625-12.125-10.948-12.125-19.125c0-11.76,9.563-21.333,21.333-21.333
	c11.771,0,21.333,9.573,21.333,21.333C213.333,353.281,209.458,356.469,201.208,360.458z"/>
<path style="opacity:0.2;enable-background:new    ;" d="M183.716,361.336c-1.434-2.867-2.383-5.987-2.383-9.336
	c0-11.76,9.563-21.333,21.333-21.333c3.12,0,6.034,0.747,8.706,1.954C208.023,325.217,200.647,320,192,320
	c-11.771,0-21.333,9.573-21.333,21.333c0,8.177,4.646,15.5,12.125,19.125C183.193,360.654,183.349,361.098,183.716,361.336z"/>
<linearGradient id="SVGID_1_" gradientUnits="userSpaceOnUse" x1="-37.6449" y1="637.8398" x2="-30.9102" y2="631.1031" gradientTransform="matrix(21.3333 0 0 -21.3333 996.3334 13791.667)">
	<stop  offset="0" style="stop-color:#000000;stop-opacity:0.1"/>
	<stop  offset="1" style="stop-color:#000000;stop-opacity:0"/>
</linearGradient>
<path style="fill:url(#SVGID_1_);" d="M298.667,213.333h-59.229c-12.146,13.625-29.167,21.333-47.438,21.333
	c-13.826,0-26.552-4.509-37.027-11.991L298.667,366.37V213.333z"/>
<path style="opacity:0.1;enable-background:new    ;" d="M149.333,170.667c0,23.531,19.146,42.667,42.667,42.667
	c13.354,0,25.708-6.229,33.896-17.094c2.021-2.667,5.167-4.24,8.521-4.24h192.25v-21.333H149.333z"/>
<linearGradient id="SVGID_2_" gradientUnits="userSpaceOnUse" x1="-46.6315" y1="638.6478" x2="-28.7614" y2="630.3147" gradientTransform="matrix(21.3333 0 0 -21.3333 996.3334 13791.667)">
	<stop  offset="0" style="stop-color:#FFFFFF;stop-opacity:0.2"/>
	<stop  offset="1" style="stop-color:#FFFFFF;stop-opacity:0"/>
</linearGradient>
<path style="fill:url(#SVGID_2_);" d="M437.333,128H320V42.667C320,19.135,300.854,0,277.333,0H106.667
	C83.146,0,64,19.135,64,42.667v426.667C64,492.865,83.146,512,106.667,512h170.667C300.854,512,320,492.865,320,469.333v-256
	h117.333c5.896,0,10.667-4.771,10.667-10.667v-64C448,132.771,443.229,128,437.333,128z"/>
<g>
</g>
<g>
</g>
<g>
</g>
<g>
</g>
<g>
</g>
<g>
</g>
<g>
</g>
<g>
</g>
<g>
</g>
<g>
</g>
<g>
</g>
<g>
</g>
<g>
</g>
<g>
</g>
<g>
</g>
</svg>
